<svg width="12" height="12" viewBox="0 0 12 12" fill="none" xmlns="http://www.w3.org/2000/svg">
<g id="person.2.fill">
<path id="Vector" d="M3.07757 5.69631C3.85745 5.69631 4.53669 4.99191 4.53669 4.08205C4.53669 3.17639 3.85325 2.51392 3.07757 2.51392C2.29769 2.51392 1.61426 3.19317 1.61426 4.09044C1.61426 4.99191 2.2935 5.69631 3.07757 5.69631ZM0.737946 9.4825H5.40883C5.94131 9.4825 6.14675 9.27284 6.14675 8.89128C6.14675 7.73405 4.96436 6.33781 3.07338 6.33781C1.18239 6.33781 0 7.73405 0 8.89128C0 9.27284 0.209644 9.4825 0.737946 9.4825Z" fill="#B2BEFF"/>
<path id="Vector_2" d="M5.26604 10.0565H10.5365C11.6392 10.0565 11.9998 9.52396 11.9998 8.92858C11.9998 7.5198 10.3856 5.78394 7.89916 5.78394C5.417 5.78394 3.80273 7.5198 3.80273 8.92858C3.80273 9.52396 4.16332 10.0565 5.26604 10.0565Z" fill="#F4F3FF"/>
<path id="Vector_3" d="M7.90347 5.60003C8.80493 5.60003 9.58064 4.795 9.58064 3.74678C9.58064 2.71114 8.80072 1.94385 7.90347 1.94385C7.00621 1.94385 6.22634 2.72791 6.22634 3.75517C6.22634 4.795 7.002 5.60003 7.90347 5.60003ZM5.26614 9.48266H10.5366C11.1949 9.48266 11.4297 9.29396 11.4297 8.92497C11.4297 7.84323 10.0754 6.35055 7.89926 6.35055C5.72735 6.35055 4.37305 7.84323 4.37305 8.92497C4.37305 9.29396 4.60786 9.48266 5.26614 9.48266Z" fill="#B2BEFF"/>
</g>
</svg>
